<svg width="1080" height="1080" viewBox="0 0 1080 1080" fill="none" xmlns="http://www.w3.org/2000/svg">
<rect width="1080" height="1080" fill="010101"/>
<path d="M184.984 582.248L146.84 553.448L193.432 521.96L197.528 525.928L164.12 548.456L199.448 575.08L184.984 582.248ZM303.256 570.344C303.256 567.699 302.189 565.224 300.056 562.92C297.923 560.616 295.235 558.525 291.992 556.648C288.835 554.685 284.525 552.296 279.064 549.48C272.579 546.067 267.373 543.165 263.448 540.776C259.523 538.301 256.152 535.4 253.336 532.072C250.605 528.744 249.24 525.075 249.24 521.064C249.24 516.797 251.032 512.232 254.616 507.368C258.2 502.419 262.552 498.28 267.672 494.952C272.877 491.539 277.656 489.832 282.008 489.832C287.299 489.832 293.443 490.472 300.44 491.752C307.437 493.032 312.557 494.397 315.8 495.848V520.68H310.936C306.755 513.768 302.147 508.392 297.112 504.552C292.163 500.712 286.957 498.792 281.496 498.792C276.632 498.792 272.749 500.328 269.848 503.4C267.032 506.387 265.624 510.312 265.624 515.176C265.624 517.992 266.691 520.637 268.824 523.112C271.043 525.501 273.731 527.635 276.888 529.512C280.131 531.389 284.611 533.821 290.328 536.808C296.643 539.965 301.763 542.781 305.688 545.256C309.613 547.645 312.899 550.461 315.544 553.704C318.275 556.861 319.64 560.445 319.64 564.456C319.64 568.723 317.72 573.331 313.88 578.28C310.04 583.144 305.347 587.283 299.8 590.696C294.339 594.024 289.347 595.688 284.824 595.688C279.277 595.688 272.664 595.048 264.984 593.768C257.389 592.488 251.928 591.123 248.6 589.672V564.84H253.464C257.816 571.752 262.765 577.128 268.312 580.968C273.859 584.808 279.576 586.728 285.464 586.728C288.963 586.728 292.077 585.96 294.808 584.424C297.539 582.888 299.629 580.883 301.08 578.408C302.531 575.848 303.256 573.16 303.256 570.344ZM413.105 593H336.305V589.032L348.337 579.56V501.992L335.025 497.512L337.585 492.392H411.825L418.737 490.088V519.528L414.897 520.808L399.665 498.152H364.337V538.728H384.433L393.777 522.344H397.745V561.256L392.625 563.816L384.561 544.488H364.337V587.24H399.153L416.177 562.024L420.017 563.304V595.304L413.105 593ZM527.467 505.96V593.128H520.427L459.627 516.2V581.224L473.067 588.008L470.507 593.128H440.555V589.16L452.587 579.688V504.68L439.275 497.512L441.835 492.392H461.163L520.427 567.4V504.168L507.115 497.512L509.675 492.392H539.627V496.488L527.467 505.96ZM653.55 593H614.638V589.032L626.67 579.688L616.814 556.008H573.806L563.31 580.2L585.838 587.88L583.278 593H544.366V589.032L556.398 579.56L592.622 496.488L605.934 489.96L643.31 580.072L656.11 587.88L653.55 593ZM595.822 505.32L576.366 550.248H614.51L595.822 505.32ZM784.893 593.128H745.981V589.16L758.013 579.688V508.904L723.837 593.128H716.797L682.877 508.008V581.224L696.317 588.008L693.757 593.128H663.805V589.16L675.837 579.688V504.68L662.525 497.512L665.085 492.392H692.861L724.861 572.776L756.733 492.392H786.173V496.36L774.013 505.832V583.272L787.453 588.008L784.893 593.128ZM838.713 610.92L832.185 609.64L865.849 472.296L872.505 473.576L838.713 610.92ZM884.981 584.936L880.885 580.968L914.293 558.44L878.965 531.816L893.429 524.648L931.573 553.448L884.981 584.936Z" fill="#f1f1f1"/>
</svg>
